<svg width="292" height="150" viewBox="0 0 292 150" fill="none" xmlns="http://www.w3.org/2000/svg">
<path d="M269.313 118.38C268.988 119.055 268.664 119.721 268.341 120.378C267.837 121.398 267.339 122.399 266.849 123.38C266.63 123.814 266.412 124.241 266.199 124.667C263.79 129.41 261.541 133.606 259.63 137.056C256.105 143.414 249.238 147.428 241.757 147.503L199.281 147.948H198.833L195.191 147.986L192.077 148.018L182.525 148.118H182.139L177.276 148.17H177.128L147.157 148.483L120.405 148.753L117.294 148.785L97.9669 148.988H97.9445L85.4101 149.117H85.2757L45.642 149.53L33.7855 149.654C31.2554 149.682 28.7356 149.334 26.3153 148.623C22.1035 147.397 18.3177 145.087 15.3663 141.942C10.2741 136.535 6.56285 130.226 4.06998 123.38C3.7095 122.392 3.37338 121.391 3.06163 120.378C-5.56815 92.262 4.95229 55.9883 23.8868 31.714C24.6804 30.6989 25.487 29.709 26.3069 28.7445L26.3265 28.7229C32.1497 21.8336 38.6788 16.0782 45.6336 11.9857C57.9578 4.72122 71.6125 2.67496 85.0432 8.77323C96.4067 13.9348 107.017 16.3617 117.302 17.0203C118.341 17.0851 119.38 17.1337 120.414 17.1634C144.006 17.8788 166.117 9.68568 192.082 4.39727C193.116 4.18671 194.152 3.97884 195.197 3.78177C213.72 0.229174 234.268 -1.64431 258.703 2.29433C261.241 2.69413 263.748 3.27156 266.199 4.02203C267.277 4.35678 268.313 4.71663 269.313 5.10185C280.977 9.67488 287.338 18.1245 290.041 28.7121C290.295 29.6947 290.517 30.6943 290.704 31.7113C295.497 57.1788 281.461 93.3041 269.313 118.38Z" fill="#18A0FB" fill-opacity="0.1"/>
<g opacity="0.1">
<g opacity="0.1">
<path opacity="0.1" d="M45.6289 11.9736V149.548L33.7724 149.672C31.2423 149.7 28.7226 149.352 26.3022 148.641V28.7108H26.3219C32.1451 21.8134 38.6741 16.058 45.6289 11.9736Z" fill="#6C63FF"/>
</g>
<g opacity="0.1">
<path opacity="0.1" d="M290.711 31.7042H23.8794C24.6729 30.6892 25.4796 29.6993 26.2994 28.7347V28.7131H290.047C290.302 29.6904 290.523 30.6873 290.711 31.7042Z" fill="#6C63FF"/>
</g>
<g opacity="0.1">
<path opacity="0.1" d="M269.306 5.09792V120.368H268.334C267.83 121.389 267.331 122.39 266.841 123.37C266.623 123.805 266.404 124.232 266.191 124.658V4.00731C267.27 4.34205 268.306 4.70568 269.306 5.09792Z" fill="#6C63FF"/>
</g>
<g opacity="0.1">
<path opacity="0.1" d="M195.192 3.76694V147.99L192.077 148.023V4.38244C193.111 4.17188 194.147 3.96401 195.192 3.76694Z" fill="#6C63FF"/>
</g>
<g opacity="0.1">
<path opacity="0.1" d="M120.407 17.1471V148.771L117.295 148.804V17.004C118.334 17.0688 119.373 17.1066 120.407 17.1471Z" fill="#6C63FF"/>
</g>
<g opacity="0.1">
<path opacity="0.1" d="M268.335 120.377C267.831 121.397 267.332 122.398 266.842 123.379H4.06352C3.70304 122.391 3.36692 121.39 3.05518 120.377H268.335Z" fill="#6C63FF"/>
</g>
</g>
<path d="M241.756 144.141V147.65L199.204 148.028L198.75 148.036L182.577 148.179L182.191 148.185L177.275 148.225H177.129L147.165 148.492L97.9767 148.932H97.9347L85.4283 149.046L85.2939 149.048L29.7227 149.54V145.49L42.7892 137.932L69.0063 137.721L69.5665 137.718L69.7513 137.716L70.3115 137.708L82.8991 137.608L83.4621 137.605L83.6413 137.602L84.2015 137.6L88.2377 137.567L88.3442 137.565L98.3016 137.484H98.3828L176.082 136.852L177.984 136.838H178.174L179.625 136.825L190.171 136.741L190.731 136.733L191.249 136.728H191.518L194.798 136.703L195.448 136.695L196.319 136.69L199.05 136.666L203.383 136.63L203.943 136.625L204.918 136.62H205.1L226.026 136.447L241.756 144.141Z" fill="#65617D"/>
<path d="M241.756 144.141V147.65L199.204 148.028L198.75 148.036L182.577 148.179L182.191 148.185L177.275 148.225H177.129L147.165 148.492L97.9767 148.932H97.9347L85.4283 149.046L85.2939 149.048L29.7227 149.54V145.49L42.7892 137.932L69.0063 137.721L69.5665 137.718L69.7513 137.716L70.3115 137.708L82.8991 137.608L83.4621 137.605L83.6413 137.602L84.2015 137.6L88.2377 137.567L88.3442 137.565L98.3016 137.484H98.3828L176.082 136.852L177.984 136.838H178.174L179.625 136.825L190.171 136.741L190.731 136.733L191.249 136.728H191.518L194.798 136.703L195.448 136.695L196.319 136.69L199.05 136.666L203.383 136.63L203.943 136.625L204.918 136.62H205.1L226.026 136.447L241.756 144.141Z" fill="black" fill-opacity="0.2"/>
<path d="M207.812 82.7946H202.49V87.4972H207.812V82.7946Z" fill="black" fill-opacity="0.1"/>
<path d="M200.05 75.9461V121.352C200.034 121.925 198.948 122.397 197.598 122.419L75.5746 123.796H75.5428C74.1694 123.788 73.045 123.312 73.0278 122.729V75.9461C73.045 75.3638 74.1694 74.8871 75.5428 74.8798H197.535C198.908 74.8871 200.032 75.3638 200.05 75.9461Z" fill="#65617D"/>
<path d="M205.676 75.9461V122.729C205.67 123.316 205.277 123.796 204.801 123.796L162.876 122.419C162.413 122.397 162.04 121.925 162.034 121.352V75.9461C162.04 75.3638 162.426 74.8871 162.898 74.8798H204.803C205.278 74.8812 205.67 75.3598 205.676 75.9461Z" fill="#65617D"/>
<path d="M205.68 75.9461V122.729C205.674 123.316 205.281 123.796 204.805 123.796V74.8798C205.281 74.8798 205.674 75.359 205.68 75.9461Z" fill="black" fill-opacity="0.1"/>
<path d="M202.887 77.7813H110.66V117.802L202.887 118.882V77.7813Z" fill="#CCCCCC"/>
<path d="M73.9657 74.8798V123.796H73.954C73.4482 123.788 73.0342 123.312 73.0278 122.729V75.9461C73.0342 75.3638 73.4482 74.8871 73.954 74.8798H73.9657Z" fill="black" fill-opacity="0.1"/>
<path d="M76.0205 77.7813H117.639V117.802L76.0205 118.882V77.7813Z" fill="#CCCCCC"/>
<path d="M241.756 144.139V147.648L199.204 148.026L198.75 148.034L182.577 148.177L182.191 148.182L177.275 148.223H177.129L147.165 148.49L97.9767 148.93H97.9347L85.4283 149.044L85.2939 149.046L29.7227 149.538V145.488L86.4451 145.129H86.5795L98.0607 145.054H98.1139L177.404 144.549H177.485L177.533 144.546H177.664L179.006 144.538H179.415L200.279 144.403L201.512 144.398L201.786 144.395L241.756 144.139Z" fill="black" fill-opacity="0.1"/>
<path d="M136.482 87.4162C144.422 87.4162 150.859 81.2123 150.859 73.5594C150.859 65.9065 144.422 59.7027 136.482 59.7027C128.541 59.7027 122.104 65.9065 122.104 73.5594C122.104 81.2123 128.541 87.4162 136.482 87.4162Z" fill="#FBBEBE"/>
<path d="M85.2656 149.143C85.2656 149.113 85.2824 149.081 85.2936 149.048C85.5737 148.079 86.0723 146.441 86.4448 145.131C86.4925 144.969 86.5373 144.81 86.5793 144.659C86.991 143.182 87.7921 139.724 88.2375 137.567C88.3943 136.809 88.5176 136.217 88.5428 135.92C88.5988 135.464 89.4419 133.512 90.397 131.269C91.0664 129.693 91.7975 127.97 92.3325 126.518C92.6826 125.655 92.9571 124.766 93.1532 123.859C93.1952 123.669 93.1952 123.473 93.1532 123.284C93.0691 122.975 93.024 122.658 93.0187 122.339C92.9543 120.665 93.4725 118.02 94.2735 116.91C95.2539 115.56 95.9541 110.523 95.9541 110.523C95.9541 110.523 97.405 110.726 97.6347 109.57C97.6591 109.446 97.6683 109.319 97.6627 109.192C97.6622 109.092 97.6538 108.992 97.6375 108.893C97.3882 107.208 101.761 105.416 104.22 105.03C104.497 104.984 104.778 104.958 105.06 104.954C105.658 104.891 106.245 104.761 106.811 104.565C107.072 104.488 107.352 104.398 107.651 104.295C108.682 103.961 109.914 103.518 111.222 103.032C116.141 101.194 122.096 98.7126 122.096 98.7126C122.138 98.521 122.185 98.3374 122.238 98.1565C122.834 95.85 124.537 93.9503 126.818 93.0463V92.5064C126.818 91.575 126.776 90.6167 126.734 89.661C126.734 89.4748 126.717 89.2885 126.706 89.1022V88.7972C126.706 88.6082 126.686 88.4193 126.675 88.233L126.625 88.1952C126.195 87.8821 125.825 87.4982 125.532 87.0614C125.37 86.8063 125.236 86.5347 125.135 86.2515C124.785 85.3364 124.703 84.316 124.468 83.3495L124.418 83.1498C124.111 82.1744 123.737 81.2204 123.297 80.2936C122.678 78.8305 122.202 77.3241 121.729 75.7989C121.441 74.8757 121.151 73.9505 120.858 73.0238L120.415 71.6092C120.331 71.3393 120.247 71.0693 120.183 70.7993C120.151 70.6746 120.127 70.5486 120.11 70.4214C120.031 70.0073 120.054 69.581 120.177 69.1769C120.286 68.901 120.409 68.6308 120.547 68.3671C120.605 68.2475 120.652 68.1227 120.687 67.9945C120.696 67.9662 120.703 67.9373 120.709 67.9081C120.729 67.812 120.739 67.7146 120.74 67.6166C120.73 67.2627 120.681 66.9107 120.594 66.5665C120.593 66.5621 120.593 66.5573 120.594 66.553C120.591 66.5284 120.586 66.5041 120.58 66.4801C120.53 66.2123 120.497 65.9418 120.479 65.6702C120.381 64.2087 120.718 62.7498 121.451 61.467L121.505 61.3698C121.659 61.1091 121.831 60.8583 122.02 60.6194C122.107 60.506 122.196 60.398 122.3 60.29C121.908 60.6518 121.264 60.4925 120.9 60.1038C120.839 60.043 120.788 59.975 120.746 59.9013C120.721 59.8622 120.7 59.8217 120.681 59.7798C120.667 59.7474 120.656 59.7123 120.645 59.6772C120.449 59.0158 120.79 58.3113 121.238 57.7741C121.68 57.2509 122.227 56.8192 122.846 56.5053C122.882 56.4842 122.92 56.4653 122.958 56.4486C123.196 56.3336 123.443 56.2377 123.698 56.1624C123.848 56.1146 124 56.075 124.154 56.0436L123.115 55.9519L122.695 55.9141C123.122 54.2825 124.595 53.0909 126.336 52.9689H126.639C126.786 52.971 126.933 52.9829 127.079 53.004C126.603 52.8031 126.305 52.335 126.336 51.8351C127.07 52.3882 127.979 52.6803 128.91 52.6611H129.017C128.968 52.3688 128.936 52.074 128.922 51.7784C128.894 51.3775 128.894 50.9753 128.922 50.5744C129.429 51.0384 130.125 51.2622 130.821 51.1845L130.238 50.4016C130.757 50.8009 131.413 50.9982 132.075 50.955L132.21 50.9415C132.323 50.9302 132.434 50.9094 132.543 50.8794H132.568C132.515 50.8146 132.468 50.7471 132.42 50.677L132.403 50.6446C132.287 50.468 132.193 50.2785 132.123 50.0804C132.095 50.0037 132.073 49.9251 132.056 49.8455C131.934 49.3547 131.978 48.8391 132.182 48.3742C133.087 49.1031 134.078 50.0993 135.263 49.3461C136.448 48.5929 136.487 47.2107 138.344 47.3511C139.382 47.4456 140.287 48.0803 140.7 49.0032C141.235 48.4199 142.103 48.229 142.848 48.5308C143.581 48.8656 144.018 49.6133 143.935 50.3908C144.705 50.2045 145.534 50.021 146.274 50.3017C147.013 50.5825 147.489 51.4922 147.069 52.0996C147.058 52.1188 147.044 52.1366 147.03 52.1536C146.685 52.5828 145.923 52.8177 146.005 53.3576L146.122 53.4386L146.486 53.6923C147.915 54.6858 149.306 55.7297 150.66 56.8238C151.355 57.3853 152.094 58.0602 152.142 58.9376C152.15 59.1527 152.127 59.3681 152.074 59.5773C152.03 59.7879 151.968 59.9985 151.92 60.209C151.8 60.7454 151.769 61.2964 151.825 61.8423C151.845 62.0015 151.87 62.1581 151.901 62.3174C152.329 64.4041 154.06 66.1264 154.231 68.2564V68.4075C154.241 68.6354 154.235 68.8635 154.212 69.0905C154.083 70.3863 153.461 71.6308 152.957 72.8699C152.926 72.9455 152.895 73.0211 152.867 73.0967C151.895 75.5262 151.335 78.1151 150.906 80.6986C150.768 81.6151 150.581 82.5243 150.346 83.4224C150.091 84.4501 149.604 85.4114 148.92 86.238C148.647 86.5487 148.331 86.8214 147.979 87.0479C147.743 87.1937 147.495 87.3211 147.237 87.4285C146.979 87.536 147.237 87.4285 147.237 87.4447C147.268 87.6094 147.293 87.7741 147.324 87.9387C147.341 88.0251 147.355 88.1115 147.372 88.2087C147.37 88.2141 147.37 88.2195 147.372 88.2249C147.607 89.5018 147.876 90.7517 148.159 91.9395L148.301 92.5307C151.831 93.759 152.248 96.2749 152.273 97.2387C152.283 97.3672 152.283 97.4962 152.273 97.6247C152.263 97.7532 157.595 97.7597 159.696 99.2444C160.089 99.5012 160.513 99.7098 160.959 99.8653C161.806 100.174 162.671 100.434 163.55 100.645C164.001 100.759 164.471 100.87 164.95 100.978C165.791 101.164 166.681 101.345 167.541 101.517C169.835 101.963 171.995 102.327 173.09 102.597C175.703 103.234 181.681 108.758 181.681 108.758C181.681 108.758 182.381 114.329 183.081 115.142C183.781 115.955 185.042 118.811 185.042 118.811L189.675 126.75L191.635 130.089H192.896C193.069 130.089 193.411 130.327 193.795 130.656C194.128 130.942 194.498 131.299 194.823 131.623L195.361 132.176L195.697 132.535C195.697 132.535 197.733 132.584 198.285 134.136C199.943 134.09 201.979 134.195 203.405 134.811C203.6 134.894 203.787 134.991 203.965 135.102C204.556 135.432 204.976 135.987 205.122 136.63C205.151 136.758 205.167 136.888 205.172 137.019V137.478C205.072 139.522 203.691 141.222 202.422 142.367L202.511 142.521C202.511 142.521 202.469 142.618 202.388 142.791C202.366 142.842 202.338 142.899 202.307 142.964C202.142 143.304 201.878 143.814 201.534 144.41C200.803 145.702 199.902 146.897 198.853 147.966L198.772 148.047L182.599 148.19L182.552 148.136L179.415 144.529L177.854 142.737L177.807 142.68L177.762 143.109L177.611 144.54L177.247 147.998L177.227 148.171V148.217L177.185 148.616L177.216 148.217H177.135L147.164 148.487L97.9736 149.01V149.237H97.9344V149.01L85.4001 149.14L85.2656 149.143Z" fill="url(#paint0_linear)"/>
<path d="M150.86 101.904C150.86 101.904 122.99 105.144 125.651 101.904C126.614 100.732 126.88 97.2609 126.827 93.306C126.81 92.1047 126.766 90.8602 126.701 89.6211C126.393 83.6822 125.651 77.8781 125.651 77.8781C125.651 77.8781 150.019 66.81 147.218 75.5835C146.098 79.128 146.465 84.106 147.316 88.7789C147.566 90.1422 147.854 91.4784 148.157 92.7472C148.895 95.842 149.797 98.8981 150.86 101.904Z" fill="#FBBEBE"/>
<path d="M150.86 101.898C150.86 101.898 122.99 105.138 125.651 101.898C126.614 100.727 126.88 97.255 126.827 93.3002C131.076 91.5509 136.482 92.8548 136.482 92.8548C142.174 91.7615 145.823 91.9747 148.157 92.7414C148.895 95.8361 149.797 98.8923 150.86 101.898Z" fill="black" fill-opacity="0.1"/>
<path d="M97.961 149.242V149.015L147.152 148.499L177.122 148.229H177.206L177.175 148.629L177.217 148.229H177.27V148.183L177.654 144.553L177.8 143.179L177.845 142.749L177.884 142.39L179.615 136.827L181.346 131.271L182.802 126.593L185.026 119.444C185.026 119.444 183.766 116.61 183.066 115.8C182.365 114.99 181.665 109.456 181.665 109.456C181.665 109.456 175.688 103.968 173.075 103.336C171.979 103.066 169.817 102.707 167.52 102.256C166.66 102.089 165.778 101.911 164.929 101.716C164.45 101.611 163.98 101.5 163.529 101.39C162.651 101.178 161.786 100.921 160.938 100.618C160.493 100.462 160.07 100.254 159.678 99.9994C157.619 98.5443 152.459 98.3796 152.261 98.3796C152.26 98.3734 152.26 98.367 152.261 98.3607V98.3364C152.268 98.2231 152.268 98.1097 152.261 97.9963C152.261 97.8883 152.261 97.7614 152.235 97.6184C152.235 97.5752 152.235 97.5293 152.216 97.4834C152.202 97.3862 152.185 97.2836 152.16 97.1756C152.151 97.1273 152.14 97.0795 152.126 97.0326C152.045 96.7073 151.928 96.3914 151.776 96.0904C151.756 96.0472 151.731 96.0013 151.709 95.9581C151.572 95.7087 151.412 95.4711 151.233 95.2482C151.196 95.2023 151.157 95.1537 151.115 95.1078C150.886 94.847 150.63 94.6084 150.353 94.3951C150.277 94.3384 150.199 94.279 150.118 94.225C150.072 94.1897 150.025 94.157 149.975 94.1279L149.726 93.9713L149.493 93.8417C149.289 93.7337 149.073 93.6284 148.838 93.5286C148.765 93.4962 148.687 93.4665 148.608 93.4368C148.53 93.4071 148.406 93.3612 148.303 93.3234H148.286L148.076 93.2424C147.916 93.1911 147.754 93.1452 147.583 93.0993L147.322 93.0345L147.042 92.9725L146.762 92.9158C146.482 92.8618 146.182 92.8132 145.869 92.7754L145.549 92.7376L145.222 92.7052L144.883 92.6782L144.401 92.6512L143.841 92.6323C141.37 92.632 138.906 92.8845 136.491 93.3855C134.813 93.0256 133.094 92.8731 131.377 92.932H131.133L130.853 92.9482H130.674L130.312 92.9806C130.192 92.9806 130.069 93.0048 129.948 93.021C129.828 93.0372 129.702 93.0507 129.581 93.0696L129.396 93.0993C129.214 93.129 129.029 93.1614 128.836 93.1992C128.774 93.21 128.713 93.2235 128.651 93.2397C128.408 93.291 128.164 93.3531 127.923 93.4233C127.803 93.4557 127.682 93.4935 127.562 93.534C127.5 93.5502 127.441 93.5717 127.382 93.5933L127.203 93.6554L127.027 93.7229L126.817 93.8039C126.71 93.8471 126.606 93.893 126.503 93.9416C126.444 93.9659 126.385 93.9929 126.329 94.0226C126.273 94.0523 126.214 94.0766 126.161 94.1063C125.528 94.4216 124.942 94.8195 124.422 95.2887L124.279 95.4209L124.139 95.5586C124.091 95.6045 124.046 95.6531 124.002 95.7017C123.819 95.8939 123.649 96.0969 123.492 96.3091C123.447 96.3658 123.405 96.4225 123.363 96.4819C123.185 96.7345 123.024 96.9977 122.881 97.2701C122.845 97.3349 122.811 97.4024 122.778 97.4672C122.549 97.9232 122.362 98.3975 122.217 98.8845C122.165 99.0645 122.117 99.2443 122.075 99.4244C122.032 99.6044 116.145 101.946 111.226 103.771C109.918 104.257 108.686 104.697 107.655 105.029C107.355 105.126 107.075 105.215 106.815 105.299C106.25 105.495 105.662 105.626 105.064 105.687C104.782 105.692 104.502 105.717 104.224 105.763C101.964 106.117 98.0898 107.653 97.6669 109.194C97.6324 109.317 97.6229 109.445 97.6389 109.572C97.6548 109.699 97.6389 109.591 97.6389 109.602C97.919 111.491 95.9583 111.221 95.9583 111.221C95.9583 111.221 95.258 116.216 94.2777 117.565C93.5691 118.537 93.0845 120.705 93.0229 122.341C92.9876 122.85 93.029 123.362 93.1461 123.861V123.898C93.2582 124.26 92.9893 125.248 92.5327 126.514C92.0369 127.905 91.3143 129.632 90.6196 131.263C89.5721 133.725 88.5861 135.96 88.5245 136.451C88.4993 136.67 88.4265 137.061 88.3256 137.566C87.9167 139.623 87.0092 143.54 86.561 145.125C86.2277 146.307 85.7432 147.927 85.4098 149.039C85.4098 149.072 85.3902 149.104 85.3818 149.134L97.9386 149.015V149.242H97.9778H97.961Z" fill="#18A0FB"/>
<path d="M102.545 117.424C102.545 117.424 118.511 125.388 124.253 124.443L102.545 117.424Z" fill="black" fill-opacity="0.1"/>
<path d="M135.038 114.179C135.038 114.179 150.583 119.038 155.765 119.713C160.947 120.388 135.038 114.179 135.038 114.179Z" fill="black" fill-opacity="0.1"/>
<path d="M152.282 98.5477C144.159 99.9892 128.866 99.6788 122.256 99.4601C124.679 91.0915 136.493 93.9368 136.493 93.9368C151.117 91.1239 152.237 96.9603 152.282 98.5477Z" fill="black" fill-opacity="0.1"/>
<path d="M152.282 98.0154C144.159 99.457 128.866 99.1465 122.256 98.9279C124.679 90.5593 136.493 93.4046 136.493 93.4046C151.117 90.5917 152.237 96.4281 152.282 98.0154Z" fill="#18A0FB"/>
<path d="M195.399 134.902C195.399 134.902 204.968 133.484 205.155 137.534C205.343 141.583 200.276 144.412 200.276 144.412L195.399 134.902Z" fill="#FBBEBE"/>
<path d="M147.323 88.7789C146.912 88.9563 146.491 89.1128 146.063 89.2486C143.044 90.2528 139.999 91.2652 136.82 91.6323C133.641 91.9995 130.305 91.6755 127.532 90.1476C127.241 89.9891 126.96 89.8134 126.691 89.6212C126.383 83.6822 125.641 77.8781 125.641 77.8781C125.641 77.8781 150.01 66.81 147.209 75.5835C146.094 79.128 146.472 84.106 147.323 88.7789Z" fill="black" fill-opacity="0.1"/>
<path d="M132.539 51.8944C131.729 52.1006 130.864 51.9252 130.209 51.422L130.791 52.2021C130.097 52.2794 129.401 52.0569 128.892 51.5948C128.839 52.2931 128.87 52.995 128.982 53.6869C128.018 53.7317 127.069 53.4445 126.304 52.877C126.274 53.3746 126.57 53.8408 127.044 54.0405C125.05 53.8111 123.168 55.0558 122.674 56.9317L124.136 57.0613C122.987 57.2978 121.956 57.9044 121.212 58.7809C120.764 59.3208 120.422 60.0119 120.618 60.6706C120.814 61.3293 121.761 61.7504 122.276 61.2807C120.793 62.9868 120.167 65.2409 120.568 67.433C120.701 67.8946 120.744 68.3759 120.697 68.8529C120.604 69.2984 120.313 69.6844 120.167 70.119C119.887 70.9073 120.153 71.763 120.402 72.5486L121.716 76.7113C122.192 78.215 122.666 79.7213 123.287 81.1764C123.728 82.0964 124.102 83.0442 124.408 84.0136C124.761 85.3202 124.775 86.7509 125.528 87.8928C126.044 88.6114 126.735 89.1981 127.539 89.6016C130.31 91.1296 133.657 91.4535 136.827 91.0864C139.998 90.7192 143.04 89.7069 146.057 88.7027C146.727 88.5081 147.37 88.2362 147.972 87.8928C150.059 86.5755 150.524 83.8813 150.913 81.5084C151.348 78.8629 151.927 76.2227 152.955 73.7337C153.566 72.2517 154.356 70.748 154.221 69.1607C154.051 67.0523 152.32 65.3435 151.891 63.2703C151.748 62.5773 151.754 61.863 151.911 61.1727C152.043 60.7613 152.118 60.3345 152.132 59.904C152.084 59.0347 151.345 58.3652 150.65 57.8064C149.143 56.5935 147.588 55.447 145.984 54.3672C145.903 53.8273 146.664 53.5951 147.009 53.1686C147.496 52.5666 146.992 51.6109 146.253 51.3302C145.513 51.0494 144.684 51.233 143.914 51.4193C143.924 51.3448 143.929 51.2697 143.929 51.1947C143.929 50.2188 143.095 49.4157 142.083 49.4157C141.543 49.4157 141.029 49.6441 140.679 50.0398C140.262 49.1203 139.357 48.49 138.32 48.3985C136.463 48.2581 136.427 49.6268 135.239 50.38C134.052 51.1331 133.071 50.1397 132.158 49.4162C131.817 50.2474 131.963 51.1941 132.539 51.8944Z" fill="#3F3D56"/>
<path d="M202.496 142.999C202.496 142.999 202.247 143.572 201.788 144.401C201.093 145.675 200.247 146.869 199.267 147.956L199.191 148.034H198.737L182.565 148.177H182.178L182.13 148.123L178.993 144.535L177.811 143.183L177.764 143.126L177.663 143.013L177.607 142.948L177.534 142.864L175.234 140.235L176.075 136.861L177.506 131.175L177.542 131.038L177.822 129.958L178.021 129.148L178.688 126.508L180.974 117.424L185.035 119.449L189.318 126.737L191.617 130.652H192.878C193.116 130.652 193.662 131.094 194.211 131.605C194.407 131.786 194.603 131.977 194.771 132.145C195.27 132.641 195.665 133.068 195.665 133.068C195.665 133.068 197.707 133.111 198.256 134.661C198.284 134.736 198.307 134.812 198.326 134.89C198.508 135.499 198.745 136.092 199.034 136.661C199.396 137.419 199.849 138.281 200.309 139.142C201.163 140.721 202.031 142.225 202.351 142.77L202.39 142.837L202.496 142.999Z" fill="#18A0FB"/>
<path d="M178.431 130.815L178.403 131.201V131.228L178.355 131.849L177.983 136.846L177.532 142.866L177.403 144.562L177.123 148.19V148.236L147.153 148.506L97.9704 149.018V149.245H97.9312V148.943L98.0572 145.066L98.2981 137.491L98.5053 131.069L98.525 130.429C98.5734 128.904 99.889 127.674 101.473 127.674C101.557 127.674 101.64 127.677 101.724 127.684C103.046 127.792 104.763 127.924 106.816 128.065L107.656 128.124C119.513 128.918 141.425 129.943 163.535 128.664C164 128.64 164.468 128.613 164.936 128.58C168.364 128.372 171.79 128.105 175.182 127.77C175.284 127.76 175.387 127.755 175.489 127.755C177.107 127.755 178.439 129.038 178.439 130.598C178.439 130.666 178.436 130.734 178.431 130.802V130.815Z" fill="black" fill-opacity="0.1"/>
<path d="M97.9673 149.239V149.012L147.158 148.496L177.128 148.226H177.212V148.181L177.492 144.552L177.613 142.933L178.072 136.829L178.434 131.997V131.878C178.45 131.655 178.44 131.431 178.403 131.211C178.404 131.202 178.404 131.193 178.403 131.184C178.326 130.728 178.133 130.298 177.843 129.932C177.216 129.158 176.217 128.749 175.204 128.852C171.812 129.187 168.386 129.454 164.958 129.662C164.49 129.694 164.023 129.721 163.558 129.745C141.447 131.011 119.535 129.986 107.678 129.205L106.838 129.146C104.785 129.006 103.068 128.876 101.746 128.765C100.247 128.643 98.879 129.644 98.5975 131.068C98.5692 131.214 98.5524 131.362 98.5471 131.511L98.3566 137.493L98.0961 145.071L97.9729 148.947V149.25L97.9673 149.239Z" fill="#3F3D56"/>
<path d="M178.521 132.698L178.176 136.837L177.664 143.005L177.535 144.549L177.255 148.007L177.238 148.18V148.226L177.196 148.626L177.227 148.226H177.146L147.175 148.496L97.9761 149.009V148.933L98.1133 145.057L98.3934 137.482L98.5727 132.447C98.5906 131.866 98.9138 131.331 99.4298 131.03C99.7468 130.843 100.118 130.758 100.489 130.787C101.077 130.833 101.799 130.887 102.642 130.946C104.012 131.043 105.701 131.157 107.667 131.276C111.309 131.497 115.877 131.734 121.112 131.929C135.677 132.469 155.34 132.65 174.017 131.073C174.857 131.003 175.725 130.925 176.574 130.846C176.91 130.814 177.249 130.876 177.549 131.024C177.634 131.065 177.715 131.114 177.79 131.17C178.033 131.341 178.227 131.57 178.35 131.834C178.378 131.887 178.402 131.942 178.42 131.999C178.504 132.223 178.538 132.461 178.521 132.698Z" fill="black" fill-opacity="0.1"/>
<g opacity="0.1">
<g opacity="0.1">
<path opacity="0.1" d="M132.659 51.0194C132.386 50.6768 132.204 50.2743 132.13 49.8478C132.062 50.2646 132.103 50.6914 132.248 51.0896C132.387 51.0772 132.524 51.0537 132.659 51.0194Z" fill="black"/>
</g>
<g opacity="0.1">
<path opacity="0.1" d="M129.103 52.8039C129.05 52.4729 129.015 52.1395 128.999 51.8051V52.8066L129.103 52.8039Z" fill="black"/>
</g>
<g opacity="0.1">
<path opacity="0.1" d="M151.927 61.8158C151.942 61.5752 151.976 61.336 152.027 61.1004C152.16 60.6898 152.235 60.2641 152.251 59.8343C152.245 59.7379 152.23 59.6421 152.207 59.5481C152.159 59.7965 152.083 60.0449 152.027 60.2905C151.916 60.7913 151.881 61.3053 151.927 61.8158Z" fill="black"/>
</g>
<g opacity="0.1">
<path opacity="0.1" d="M146.106 53.4827L146.411 53.696C146.669 53.5165 146.91 53.3162 147.131 53.0967C147.346 52.8111 147.386 52.4361 147.238 52.1141C147.21 52.1756 147.174 52.2337 147.131 52.2868C146.787 52.7134 146.025 52.9482 146.106 53.4827Z" fill="black"/>
</g>
<g opacity="0.1">
<path opacity="0.1" d="M123.087 56.0801C122.985 56.2769 122.904 56.4831 122.844 56.6955C123.282 56.4599 123.754 56.2879 124.244 56.1853L123.087 56.0801Z" fill="black"/>
</g>
<g opacity="0.1">
<path opacity="0.1" d="M126.945 53.1329C126.761 53.0352 126.585 52.9242 126.418 52.8008C126.411 52.9077 126.42 53.0149 126.444 53.1194C126.611 53.1118 126.778 53.1162 126.945 53.1329Z" fill="black"/>
</g>
<g opacity="0.1">
<path opacity="0.1" d="M154.334 69.0424C154.219 70.3517 153.586 71.6124 153.073 72.8542C152.045 75.3432 151.465 77.9833 151.031 80.6316C150.642 83.0045 150.191 85.6986 148.09 87.0133C147.49 87.3589 146.848 87.631 146.177 87.8232C143.158 88.8301 140.113 89.8397 136.934 90.2069C133.755 90.574 130.419 90.2528 127.646 88.7248C126.842 88.3204 126.152 87.7341 125.635 87.016C124.887 85.8741 124.873 84.4434 124.515 83.1368C124.209 82.1666 123.834 81.2177 123.394 80.2968C122.775 78.8445 122.299 77.3273 121.826 75.8345C121.387 74.4469 120.949 73.0586 120.512 71.6691C120.368 71.2512 120.261 70.8223 120.193 70.3868C120.083 71.0779 120.296 71.8014 120.512 72.479C120.949 73.87 121.387 75.2587 121.826 76.6444C122.299 78.148 122.775 79.6544 123.394 81.1067C123.834 82.0275 124.209 82.9764 124.515 83.9466C124.867 85.2532 124.881 86.684 125.635 87.8259C126.152 88.544 126.842 89.1303 127.646 89.5347C130.419 91.0626 133.763 91.3839 136.934 91.0167C140.105 90.6496 143.147 89.64 146.177 88.633C146.848 88.4408 147.49 88.1687 148.09 87.8232C150.177 86.5085 150.642 83.8144 151.031 81.4415C151.465 78.7932 152.045 76.1531 153.073 73.6641C153.684 72.1847 154.474 70.6811 154.339 69.091C154.339 69.0749 154.334 69.0586 154.334 69.0424Z" fill="black"/>
</g>
<g opacity="0.1">
<path opacity="0.1" d="M120.813 68.0034V67.9737C120.864 67.4978 120.82 67.0167 120.685 66.5565C120.628 66.2603 120.592 65.9609 120.575 65.6602C120.543 66.2312 120.58 66.8037 120.685 67.3663C120.729 67.5769 120.78 67.7902 120.813 68.0034Z" fill="black"/>
</g>
<g opacity="0.1">
<path opacity="0.1" d="M121.662 61.4011C121.877 61.0523 122.122 60.7211 122.393 60.4104C121.88 60.8828 120.934 60.4617 120.735 59.8057C120.661 60.071 120.661 60.3502 120.735 60.6155C120.875 61.0183 121.229 61.3188 121.662 61.4011Z" fill="black"/>
</g>
</g>
<path d="M191.617 130.644C191.617 130.644 192.505 133.748 191.617 136.448C190.729 139.147 191.617 130.644 191.617 130.644Z" fill="black" fill-opacity="0.1"/>
<path d="M195.401 133.82C195.401 133.82 195.773 137.761 194.933 138.461C194.093 139.16 195.401 133.82 195.401 133.82Z" fill="black" fill-opacity="0.1"/>
<path d="M81.0977 84.4896L109.558 84.2196" stroke="#18A0FB" stroke-width="0.00191939" stroke-miterlimit="10"/>
<path d="M81.0977 87.8519L109.558 87.5847" stroke="#18A0FB" stroke-width="0.00191939" stroke-miterlimit="10"/>
<path d="M81.0977 91.2197L109.558 90.9497" stroke="#18A0FB" stroke-width="0.00191939" stroke-miterlimit="10"/>
<defs>
<linearGradient id="paint0_linear" x1="145.209" y1="149.237" x2="145.209" y2="47.262" gradientUnits="userSpaceOnUse">
<stop stop-color="#808080" stop-opacity="0.25"/>
<stop offset="0.54" stop-color="#808080" stop-opacity="0.12"/>
<stop offset="1" stop-color="#808080" stop-opacity="0.1"/>
</linearGradient>
</defs>
</svg>
