<svg viewBox="0 0 1047 560" xmlns="http://www.w3.org/2000/svg" fill-rule="evenodd" clip-rule="evenodd" stroke-linejoin="round" stroke-miterlimit="2"><g transform="translate(2.49 -1267.62)"><path fill="none" d="M-2.489 1267.62h1046.28v559.031H-2.489z"/><clipPath id="a"><path d="M-2.489 1267.62h1046.28v559.031H-2.489z"/></clipPath><g clip-path="url(#a)"><path d="M961.99 1708.91c-1.16 2.5-2.32 4.967-3.47 7.4-1.8 3.78-3.58 7.487-5.33 11.12-.78 1.61-1.56 3.19-2.32 4.77-8.6 17.57-16.63 33.11-23.45 45.89-12.587 23.555-37.103 38.423-63.81 38.7l-151.65 1.65h-1.6l-13 .14-11.12.12-34.1.37h-1.38l-17.36.19h-.53l-107 1.16-95.51 1-11.11.12-69 .75h-.08l-44.75.48h-.48l-141.5 1.53-42.33.46a88.06 88.06 0 0 1-26.67-3.82 86.393 86.393 0 0 1-39.09-24.75c-18.18-20.03-31.43-43.4-40.33-68.76a234.544 234.544 0 0 1-3.6-11.12c-30.81-104.15 6.75-238.52 74.35-328.44a344.301 344.301 0 0 1 8.64-11l.07-.08c20.79-25.52 44.1-46.84 68.93-62 44-26.91 92.75-34.49 140.7-11.9 40.57 19.12 78.45 28.11 115.17 30.55 3.71.24 7.42.42 11.11.53 84.23 2.65 163.17-27.7 255.87-47.29 3.69-.78 7.39-1.55 11.12-2.28 66.13-13.16 139.49-20.1 226.73-5.51a189.21 189.21 0 0 1 26.76 6.4c3.85 1.24 7.55 2.573 11.12 4 41.64 16.94 64.35 48.24 74 87.46.91 3.64 1.7 7.343 2.37 11.11 17.11 94.34-33 228.16-76.37 321.05z" fill="#18a0fb" fill-opacity=".09" fill-rule="nonzero" stroke="#ccc" stroke-opacity=".2" stroke-width="7.5"/><g opacity=".1"><path d="M163.41 1314.79v509.62l-42.33.46a88.06 88.06 0 0 1-26.67-3.82v-444.26h.07c20.79-25.55 44.1-46.87 68.93-62z" fill="#18a0fb" fill-rule="nonzero"/><path d="M1038.41 1387.87H85.77a344.301 344.301 0 0 1 8.64-11v-.08h941.63c.91 3.62 1.7 7.313 2.37 11.08z" fill="#18a0fb" fill-rule="nonzero"/><path d="M961.99 1289.3v427h-3.47c-1.8 3.78-3.58 7.487-5.33 11.12-.78 1.61-1.56 3.19-2.32 4.77v-446.93c3.85 1.24 7.55 2.587 11.12 4.04zM697.38 1284.37v534.25l-11.12.12v-532.09c3.69-.78 7.39-1.55 11.12-2.28zM430.39 1333.94v487.58l-11.11.12v-488.23c3.71.24 7.42.38 11.11.53z" fill="#18a0fb" fill-rule="nonzero"/><path d="M958.52 1716.31c-1.8 3.78-3.58 7.487-5.33 11.12H15.02a234.544 234.544 0 0 1-3.6-11.12h947.1z" fill="#18a0fb" fill-rule="nonzero"/></g><path d="M863.61 1804.35v13l-151.92 1.4-1.62.03-57.74.53-1.38.02-17.55.15h-.52l-106.98.99-175.61 1.63h-.15l-44.65.42-.48.01-198.4 1.82v-15l46.65-28 93.6-.78 2-.01.66-.01 2-.03 44.94-.37 2.01-.01.64-.01 2-.01 14.41-.12.38-.01 35.55-.3h.29l277.4-2.34 6.79-.05h.68l5.18-.05 37.65-.31 2-.03 1.85-.02h.96l11.71-.09 2.32-.03 3.11-.02 9.75-.09 15.47-.13 2-.02 3.48-.02h.65l74.71-.64 56.16 28.5z" fill="#65617d" fill-rule="nonzero"/><path d="M863.61 1804.35v13l-151.92 1.4-1.62.03-57.74.53-1.38.02-17.55.15h-.52l-106.98.99-175.61 1.63h-.15l-44.65.42-.48.01-198.4 1.82v-15l46.65-28 93.6-.78 2-.01.66-.01 2-.03 44.94-.37 2.01-.01.64-.01 2-.01 14.41-.12.38-.01 35.55-.3h.29l277.4-2.34 6.79-.05h.68l5.18-.05 37.65-.31 2-.03 1.85-.02h.96l11.71-.09 2.32-.03 3.11-.02 9.75-.09 15.47-.13 2-.02 3.48-.02h.65l74.71-.64 56.16 28.5z" fill-opacity=".2" fill-rule="nonzero"/><path fill-opacity=".1" d="M723.44 1577.11h19v17.42h-19z"/><path d="M714.717 1551.705v168.2c-.057 2.12-3.935 3.871-8.752 3.95l-435.648 5.1h-.114c-4.903-.027-8.917-1.793-8.979-3.95v-173.3c.062-2.157 4.076-3.923 8.98-3.95h435.534c4.903.027 8.917 1.793 8.979 3.95z" fill="#65617d" fill-rule="nonzero"/><path d="M734.807 1551.705v173.3c-.02 2.175-1.424 3.95-3.123 3.95l-149.68-5.1c-1.655-.079-2.987-1.83-3.007-3.95v-168.2c.021-2.157 1.4-3.923 3.085-3.95h149.61c1.696.005 3.094 1.778 3.115 3.95z" fill="#65617d" fill-rule="nonzero"/><path d="M734.807 1551.705v173.3c-.02 2.175-1.424 3.95-3.123 3.95v-181.2c1.7 0 3.102 1.775 3.123 3.95z" fill-opacity=".1" fill-rule="nonzero"/><path d="M724.85 1558.495H395.583v148.25l329.269 4v-152.25z" fill="#ccc" fill-rule="nonzero"/><path d="M264.572 1547.775v181.2h-.042c-1.805-.027-3.284-1.793-3.306-3.95v-173.3c.022-2.157 1.5-3.923 3.306-3.95h.042z" fill-opacity=".1" fill-rule="nonzero"/><path d="M271.897 1558.515h148.585v148.25l-148.585 4v-152.25z" fill="#ccc" fill-rule="nonzero"/><path d="M863.61 1804.35v13l-151.92 1.4-1.62.03-57.74.53-1.38.02-17.55.15h-.52l-106.98.99-175.61 1.63h-.15l-44.65.42-.48.01-198.4 1.82v-15l202.51-1.33h.48l40.99-.28h.19l283.08-1.87h.29l.17-.01h.47l4.79-.03h1.46l74.49-.5 4.4-.02.98-.01 142.7-.95z" fill-opacity=".1" fill-rule="nonzero"/><circle cx="487.26" cy="272.16" r="51.33" fill="#fbbebe" transform="translate(.51 1270.7)"/><path d="M383.74 725.09c0-.11.06-.23.1-.35 1-3.59 2.78-9.66 4.11-14.51.17-.6.33-1.19.48-1.75 1.47-5.47 4.33-18.28 5.92-26.27.56-2.81 1-5 1.09-6.1.2-1.69 3.21-8.92 6.62-17.23 2.39-5.84 5-12.22 6.91-17.6a61.474 61.474 0 0 0 2.93-9.85c.15-.702.15-1.428 0-2.13a14.717 14.717 0 0 1-.48-3.5c-.23-6.2 1.62-16 4.48-20.11 3.5-5 6-23.66 6-23.66s5.18.75 6-3.53a6.14 6.14 0 0 0 .1-1.4 7.364 7.364 0 0 0-.09-1.11c-.89-6.24 14.72-12.88 23.5-14.31.991-.17 1.994-.264 3-.28a27.245 27.245 0 0 0 6.25-1.44c.933-.287 1.933-.62 3-1 3.68-1.24 8.08-2.88 12.75-4.68 17.56-6.81 38.82-16 38.82-16 .15-.71.32-1.39.51-2.06a27.728 27.728 0 0 1 16.35-18.93v-2c0-3.45-.15-7-.3-10.54 0-.69-.06-1.38-.1-2.07v-1.13c0-.7-.07-1.4-.11-2.09l-.18-.14a16.416 16.416 0 0 1-3.9-4.2 15.249 15.249 0 0 1-1.42-3c-1.25-3.39-1.54-7.17-2.38-10.75l-.18-.74a83.895 83.895 0 0 0-4-10.58c-2.21-5.42-3.91-11-5.6-16.65a2500.21 2500.21 0 0 0-3.11-10.28l-1.58-5.24c-.3-1-.6-2-.83-3a13.313 13.313 0 0 1-.26-1.4 10.001 10.001 0 0 1 .24-4.61 32.14 32.14 0 0 1 1.32-3c.209-.443.377-.905.5-1.38.033-.105.059-.212.08-.32.071-.356.108-.717.11-1.08a18.498 18.498 0 0 0-.52-3.89.072.072 0 0 1 0-.05 2.73 2.73 0 0 0-.05-.27 25.633 25.633 0 0 1-.36-3 28.446 28.446 0 0 1 3.47-15.57l.19-.36a25.182 25.182 0 0 1 1.84-2.78c.31-.42.63-.82 1-1.22-1.4 1.34-3.7.75-5-.69a3.584 3.584 0 0 1-.55-.75 3.812 3.812 0 0 1-.23-.45c-.05-.12-.09-.25-.13-.38-.7-2.45.52-5.06 2.12-7.05a18.499 18.499 0 0 1 5.74-4.7c.129-.078.263-.148.4-.21a17.061 17.061 0 0 1 2.64-1.06 15.079 15.079 0 0 1 1.63-.44l-3.71-.34-1.5-.14a14.521 14.521 0 0 1 13-10.91h1.08c.526.008 1.05.052 1.57.13a4.447 4.447 0 0 1-2.65-4.33 14.415 14.415 0 0 0 9.19 3.06h.38a29.897 29.897 0 0 1-.34-3.27 33.19 33.19 0 0 1 0-4.46 8.444 8.444 0 0 0 6.78 2.26l-2.08-2.9a9.492 9.492 0 0 0 6.56 2.05l.48-.05a6.968 6.968 0 0 0 1.19-.23h.09c-.19-.24-.36-.49-.53-.75l-.06-.12a9.651 9.651 0 0 1-1-2.09c-.1-.284-.18-.575-.24-.87a8.754 8.754 0 0 1 .45-5.45c3.23 2.7 6.77 6.39 11 3.6 4.23-2.79 4.37-7.91 11-7.39a10.213 10.213 0 0 1 8.41 6.12 6.765 6.765 0 0 1 7.67-1.75 6.863 6.863 0 0 1 3.88 6.89c2.75-.69 5.71-1.37 8.35-.33 2.64 1.04 4.34 4.41 2.84 6.66a1.463 1.463 0 0 1-.14.2c-1.23 1.59-3.95 2.46-3.66 4.46l.42.3 1.3.94c5.1 3.68 10.067 7.547 14.9 11.6 2.48 2.08 5.12 4.58 5.29 7.83a8.635 8.635 0 0 1-.24 2.37c-.16.78-.38 1.56-.55 2.34a19.516 19.516 0 0 0-.34 6.05c.07.59.16 1.17.27 1.76 1.53 7.73 7.71 14.11 8.32 22v.56a17.81 17.81 0 0 1-.07 2.53c-.46 4.8-2.68 9.41-4.48 14-.11.28-.22.56-.32.84-3.47 9-5.47 18.59-7 28.16a100.366 100.366 0 0 1-2 10.09 26.73 26.73 0 0 1-5.09 10.43 16.237 16.237 0 0 1-3.36 3c-.844.54-1.73 1.012-2.65 1.41-.92.398 0 0 0 .06.11.61.2 1.22.31 1.83.06.32.11.64.17 1a.151.151 0 0 0 0 .06c.84 4.73 1.8 9.36 2.81 13.76l.51 2.19c12.6 4.55 14.09 13.87 14.18 17.44a9.75 9.75 0 0 1 0 1.43c-.035.476 19 .5 26.5 6a20.38 20.38 0 0 0 4.51 2.3 82.828 82.828 0 0 0 9.25 2.89c1.61.42 3.29.83 5 1.23 3 .69 6.18 1.36 9.25 2 8.19 1.65 15.9 3 19.81 4 9.33 2.36 30.67 22.82 30.67 22.82s2.5 20.64 5 23.65c2.5 3.01 7 13.59 7 13.59l16.54 29.41 7 12.37h4.5c.62 0 1.84.88 3.21 2.1 1.19 1.06 2.51 2.38 3.67 3.58l1.92 2.05 1.2 1.33s7.27.18 9.24 5.93c5.92-.17 13.19.22 18.28 2.5.695.306 1.363.667 2 1.08a8.683 8.683 0 0 1 4.13 5.66c.102.474.162.956.18 1.44v1.7c-.36 7.57-5.29 13.87-9.82 18.11l.32.57s-.15.36-.44 1c-.08.19-.18.4-.29.64-.59 1.26-1.53 3.15-2.76 5.36a63.323 63.323 0 0 1-9.57 13.17l-.29.3-57.74.53-.17-.2-11.2-13.36-5.57-6.64-.17-.21-.16 1.59-.54 5.3-1.3 12.81-.07.64v.17l-.15 1.48.11-1.48h-.29l-107 1-175.62 1.94v.84h-.14v-.84l-44.75.48-.48.01z" fill="url(#_Linear2)" fill-rule="nonzero" transform="translate(-78.83 1097.79)"/><path d="M539.11 1647.86s-99.5 12-90 0c3.44-4.34 4.39-17.2 4.2-31.85-.06-4.45-.22-9.06-.45-13.65-1.1-22-3.75-43.5-3.75-43.5s87-41 77-8.5c-4 13.13-2.69 31.57.35 48.88.89 5.05 1.92 10 3 14.7a344.871 344.871 0 0 0 9.65 33.92z" fill="#fbbebe" fill-rule="nonzero"/><path d="M539.11 1647.86s-99.5 12-90 0c3.44-4.34 4.39-17.2 4.2-31.85 15.17-6.48 34.47-1.65 34.47-1.65 20.32-4.05 33.35-3.26 41.68-.42a344.871 344.871 0 0 0 9.65 33.92z" fill-opacity=".1" fill-rule="nonzero"/><path d="M350.25 1823.23v-.84l175.62-1.91 107-1h.3l-.11 1.48.15-1.48h.19v-.17l1.37-13.45.52-5.09.16-1.59.14-1.33 6.18-20.61 6.18-20.58 5.2-17.33 7.94-26.48s-4.5-10.5-7-13.5-5-23.5-5-23.5-21.34-20.33-30.67-22.67c-3.91-1-11.63-2.33-19.83-4-3.07-.62-6.22-1.28-9.25-2-1.71-.39-3.39-.8-5-1.21a87.806 87.806 0 0 1-9.25-2.86 20.709 20.709 0 0 1-4.5-2.29c-7.35-5.39-25.77-6-26.48-6a.41.41 0 0 1 0-.07v-.09c.027-.42.027-.84 0-1.26 0-.4 0-.87-.09-1.4 0-.16 0-.33-.07-.5-.05-.36-.11-.74-.2-1.14a4.78 4.78 0 0 0-.12-.53 17.23 17.23 0 0 0-1.25-3.49c-.07-.16-.16-.33-.24-.49a18.193 18.193 0 0 0-2.12-3.15 19.563 19.563 0 0 0-2.72-2.64c-.27-.21-.55-.43-.84-.63a4.642 4.642 0 0 0-.51-.36l-.89-.58-.83-.48c-.73-.4-1.5-.79-2.34-1.16-.26-.12-.54-.23-.82-.34-.28-.11-.72-.28-1.09-.42h-.06l-.75-.3a36.7 36.7 0 0 0-1.76-.53l-.93-.24-1-.23-1-.21c-1-.2-2.07-.38-3.19-.52l-1.14-.14-1.17-.12-1.21-.1-1.72-.1-2-.07a124.636 124.636 0 0 0-26.24 2.79 72.256 72.256 0 0 0-18.26-1.68h-.87l-1 .06h-.64l-1.29.12c-.43 0-.87.09-1.3.15-.43.06-.88.11-1.31.18l-.66.11c-.65.11-1.31.23-2 .37-.22.04-.44.09-.66.15-.87.19-1.74.42-2.6.68-.43.12-.86.26-1.29.41-.22.06-.43.14-.64.22l-.64.23-.63.25-.75.3c-.38.16-.75.33-1.12.51-.21.09-.42.19-.62.3-.2.11-.41.2-.6.31a27.729 27.729 0 0 0-6.21 4.38l-.51.49-.5.51c-.17.17-.33.35-.49.53a23.823 23.823 0 0 0-1.82 2.25c-.16.21-.31.42-.46.64a26.632 26.632 0 0 0-1.72 2.92c-.13.24-.25.49-.37.73a32.711 32.711 0 0 0-2 5.25 43.108 43.108 0 0 0-.51 2c-.152.667-21.17 9.34-38.73 16.1-4.67 1.8-9.07 3.43-12.75 4.66-1.07.36-2.07.69-3 1a26.71 26.71 0 0 1-6.25 1.44c-1.005.016-2.008.11-3 .28-8.07 1.31-21.9 7-23.41 12.71a3.673 3.673 0 0 0-.1 1.4c.058.469 0 .07 0 .11 1 7-6 6-6 6s-2.5 18.5-6 23.5c-2.53 3.6-4.26 11.63-4.48 17.69a19.585 19.585 0 0 0 .44 5.63v.14c.4 1.34-.56 5-2.19 9.69-1.77 5.15-4.35 11.55-6.83 17.59-3.74 9.12-7.26 17.4-7.48 19.22-.09.81-.35 2.26-.71 4.13-1.46 7.62-4.7 22.13-6.3 28-1.19 4.38-2.92 10.38-4.11 14.5 0 .12-.07.24-.1.35l44.83-.44v.84h.14-.06z" fill="#18a0fb" fill-rule="nonzero"/><path d="M366.61 1705.36s57 29.5 77.5 26l-77.5-26zM482.61 1693.36s55.5 18 74 20.5-74-20.5-74-20.5zM544.17 1635.44c-29 5.34-83.6 4.19-107.2 3.38 8.65-31 50.83-20.46 50.83-20.46 52.21-10.42 56.21 11.2 56.37 17.08z" fill-opacity=".1" fill-rule="nonzero"/><path d="M544.17 1633.44c-29 5.34-83.6 4.19-107.2 3.38 8.65-31 50.83-20.46 50.83-20.46 52.21-10.42 56.21 11.2 56.37 17.08z" fill="#18a0fb" fill-rule="nonzero"/><path d="M698.11 1770.11s34.16-5.25 34.83 9.75c.67 15-17.42 25.48-17.42 25.48l-17.41-35.23z" fill="#fbbebe" fill-rule="nonzero"/><path d="M526.46 1599.24a46.978 46.978 0 0 1-4.5 1.74c-10.78 3.72-21.65 7.47-33 8.83-11.35 1.36-23.26.16-33.16-5.5a28.784 28.784 0 0 1-3-1.95c-1.1-22-3.75-43.5-3.75-43.5s87-41 77-8.5c-3.98 13.13-2.63 31.57.41 48.88z" fill-opacity=".1" fill-rule="nonzero"/><path d="M473.69 1462.63a9.476 9.476 0 0 1-8.32-1.75l2.08 2.89a8.475 8.475 0 0 1-6.78-2.25 34.074 34.074 0 0 0 .32 7.75 14.523 14.523 0 0 1-9.56-3 4.428 4.428 0 0 0 2.64 4.31c-7.117-.85-13.835 3.761-15.6 10.71l5.22.48a18.47 18.47 0 0 0-10.44 6.37c-1.6 2-2.82 4.56-2.12 7 .7 2.44 4.08 4 5.92 2.26a27.956 27.956 0 0 0-6.1 22.79c.476 1.71.632 3.493.46 5.26-.33 1.65-1.37 3.08-1.89 4.69-1 2.92-.05 6.09.84 9l4.69 15.42c1.7 5.57 3.39 11.15 5.61 16.54a82.006 82.006 0 0 1 4 10.51c1.26 4.84 1.31 10.14 4 14.37a19.92 19.92 0 0 0 7.18 6.33c9.89 5.66 21.84 6.86 33.16 5.5 11.32-1.36 22.18-5.11 32.95-8.83a31.012 31.012 0 0 0 6.84-3c7.45-4.88 9.11-14.86 10.5-23.65 1.55-9.8 3.62-19.58 7.29-28.8 2.18-5.49 5-11.06 4.52-16.94-.61-7.81-6.79-14.14-8.32-21.82a19.01 19.01 0 0 1 .07-7.77c.475-1.524.74-3.105.79-4.7-.17-3.22-2.81-5.7-5.29-7.77a243.506 243.506 0 0 0-16.66-12.74c-.29-2 2.43-2.86 3.66-4.44 1.74-2.23-.06-5.77-2.7-6.81s-5.6-.36-8.35.33c.036-.276.054-.554.054-.832 0-3.615-2.975-6.59-6.59-6.59a6.594 6.594 0 0 0-5.013 2.312 10.213 10.213 0 0 0-8.42-6.08c-6.63-.52-6.76 4.55-11 7.34s-7.74-.89-11-3.57a9.29 9.29 0 0 0 1.36 9.18z" fill="#3f3d56" fill-rule="nonzero"/><path d="M723.44 1800.11s-.89 2.12-2.53 5.19a69.01 69.01 0 0 1-9 13.17l-.27.29h-1.62l-57.74.53h-1.38l-.17-.2-11.2-13.29-4.22-5.01-.17-.21-.36-.42-.2-.24-.26-.31-8.21-9.74 3-12.5 5.11-21.06.13-.51 1-4 .71-3 2.38-9.78 8.16-33.65 14.5 7.5 15.29 27 8.21 14.5h4.5c.85 0 2.8 1.64 4.76 3.53.7.67 1.4 1.38 2 2 1.78 1.84 3.19 3.42 3.19 3.42s7.29.16 9.25 5.9c.102.278.186.562.25.85a40.335 40.335 0 0 0 2.53 6.56c1.29 2.81 2.91 6 4.55 9.19 3.05 5.85 6.15 11.42 7.29 13.44l.14.25.38.6z" fill="#18a0fb" fill-rule="nonzero"/><path d="M637.54 1754.96l-.1 1.43v.1l-.17 2.3-1.33 18.51-1.61 22.3-.46 6.28-1 13.44v.17l-107 1-175.59 1.9v.84h-.14v-1.12l.45-14.36.86-28.06.74-23.79.07-2.37c.174-5.652 4.87-10.208 10.526-10.208.299 0 .597.013.895.038 4.72.4 10.85.89 18.18 1.41l3 .22c42.33 2.94 120.56 6.74 199.5 2 1.66-.09 3.33-.19 5-.31 12.24-.77 24.47-1.76 36.58-3 .365-.038.73-.057 1.097-.057 5.777 0 10.53 4.753 10.53 10.53 0 .252-.01.505-.027.757v.05z" fill-opacity=".1" fill-rule="nonzero"/><path d="M350.25 1823.23v-.84l175.62-1.91 107-1h.3v-.17l1-13.44.43-6 1.64-22.61 1.29-17.9v-.44c.06-.825.024-1.654-.11-2.47a.28.28 0 0 0 0-.1 10.393 10.393 0 0 0-2-4.64 10.552 10.552 0 0 0-9.42-4 937.419 937.419 0 0 1-36.58 3c-1.67.12-3.34.22-5 .31-78.94 4.69-157.17.89-199.5-2l-3-.22c-7.33-.52-13.46-1-18.18-1.41-5.35-.452-10.234 3.255-11.24 8.53-.1.541-.16 1.09-.18 1.64l-.68 22.16-.93 28.07-.44 14.36v1.12l-.02-.04z" fill="#3f3d56" fill-rule="nonzero"/><path d="M637.84 1761.97l-1.23 15.33-1.83 22.85-.46 5.72-1 12.81-.06.64v.17l-.15 1.48.11-1.48h-.29l-107 1-175.65 1.9v-.28l.49-14.36 1-28.06.64-18.65a6.367 6.367 0 0 1 3.06-5.25 6.252 6.252 0 0 1 3.78-.9c2.1.17 4.68.37 7.69.59 4.89.36 10.92.78 17.94 1.22 13 .82 29.31 1.7 48 2.42 52 2 122.2 2.67 188.88-3.17 3-.26 6.1-.55 9.13-.84a6.26 6.26 0 0 1 3.48.66c.305.151.593.332.86.54a6.147 6.147 0 0 1 2 2.46c.103.195.187.399.25.61.3.828.424 1.711.36 2.59z" fill-opacity=".1" fill-rule="nonzero"/><g opacity=".1"><path d="M474.1 1459.35a9.748 9.748 0 0 1-1.89-4.34 9.487 9.487 0 0 0 .42 4.6 9.052 9.052 0 0 0 1.47-.26zM461.4 1465.99a35.036 35.036 0 0 1-.37-3.7v3.71l.37-.01zM542.9 1499.36c.056-.891.177-1.777.36-2.65a18 18 0 0 0 .8-4.69 6.126 6.126 0 0 0-.16-1.06c-.17.92-.44 1.84-.64 2.75a19.145 19.145 0 0 0-.36 5.65zM522.1 1468.46l1.09.79a19.684 19.684 0 0 0 2.57-2.22 3.673 3.673 0 0 0 .38-3.64 3.02 3.02 0 0 1-.38.64c-1.23 1.58-3.95 2.45-3.66 4.43zM439.93 1478.08a12.303 12.303 0 0 0-.87 2.28 18.162 18.162 0 0 1 5-1.89l-4.13-.39zM453.72 1467.2a14.852 14.852 0 0 1-1.88-1.23 4.25 4.25 0 0 0 .09 1.18 11.89 11.89 0 0 1 1.79.05zM551.49 1526.12c-.41 4.85-2.67 9.52-4.5 14.12-3.67 9.22-5.74 19-7.29 28.81-1.39 8.79-3 18.77-10.5 23.64a30.007 30.007 0 0 1-6.83 3c-10.78 3.73-21.65 7.47-33 8.83-11.35 1.36-23.26.17-33.16-5.49a20.009 20.009 0 0 1-7.18-6.33c-2.67-4.23-2.72-9.53-4-14.37a82.142 82.142 0 0 0-4-10.52c-2.21-5.38-3.91-11-5.6-16.53-1.566-5.14-3.13-10.283-4.69-15.43a28.794 28.794 0 0 1-1.14-4.75c-.39 2.56.37 5.24 1.14 7.75 1.56 5.153 3.124 10.297 4.69 15.43 1.69 5.57 3.39 11.15 5.6 16.53a82.142 82.142 0 0 1 4 10.52c1.26 4.84 1.31 10.14 4 14.37a20.009 20.009 0 0 0 7.18 6.33c9.9 5.66 21.84 6.85 33.16 5.49 11.32-1.36 22.18-5.1 33-8.83a30.007 30.007 0 0 0 6.83-3c7.45-4.87 9.11-14.85 10.5-23.64 1.55-9.81 3.62-19.59 7.29-28.81 2.18-5.48 5-11.05 4.52-16.94 0-.06-.02-.12-.02-.18zM431.8 1522.25v-.11c.18-1.763.025-3.545-.46-5.25-.2-1.097-.33-2.206-.39-3.32a27.368 27.368 0 0 0 .39 6.32c.16.78.34 1.57.46 2.36zM434.85 1497.79a27.765 27.765 0 0 1 2.61-3.67c-1.83 1.75-5.21.19-5.92-2.24a5.823 5.823 0 0 0 0 3 4.394 4.394 0 0 0 3.31 2.91z" fill-rule="nonzero"/></g><path d="M684.61 1754.36s3.17 11.5 0 21.5 0-21.5 0-21.5zM698.11 1766.09s1.33 14.6-1.67 17.19c-3 2.59 1.67-17.19 1.67-17.19z" fill-opacity=".1" fill-rule="nonzero"/><g><path d="M198.99 342.86l101.61-1M198.99 355.33l101.61-.99M198.99 367.81l101.61-1" fill="none" stroke="#18a0fb" stroke-width="2" stroke-linejoin="miter" stroke-miterlimit="10" transform="matrix(.9311 0 0 1 104.767 1287.515)"/></g><g><path d="M198.99 342.86l101.61-1M198.99 355.33l101.61-.99M198.99 367.81l101.61-1" fill="none" stroke="#18a0fb" stroke-width="2" stroke-linejoin="miter" stroke-miterlimit="10" transform="matrix(1.22636 0 0 1 46.016 1240.515)"/></g><g><path d="M198.99 342.86l101.61-1M198.99 355.33l101.61-.99M198.99 367.81l101.61-1" fill="none" stroke="#18a0fb" stroke-width="2" stroke-linejoin="miter" stroke-miterlimit="10" transform="matrix(.9311 0 0 1 417.489 1287.515)"/></g><g><path d="M198.99 342.86l101.61-1M198.99 355.33l101.61-.99M198.99 367.81l101.61-1" fill="none" stroke="#18a0fb" stroke-width="2" stroke-linejoin="miter" stroke-miterlimit="10" transform="matrix(1.22636 0 0 1 328.738 1240.515)"/></g></g></g><defs><linearGradient id="_Linear2" x1="0" y1="0" x2="1" y2="0" gradientUnits="userSpaceOnUse" gradientTransform="rotate(-90 661.595 63.845) scale(377.75)"><stop offset="0" stop-color="gray" stop-opacity=".25"/><stop offset=".54" stop-color="gray" stop-opacity=".12"/><stop offset="1" stop-color="gray" stop-opacity=".1"/></linearGradient></defs></svg>