<svg viewBox="0 0 410 2211" xmlns="http://www.w3.org/2000/svg" fill-rule="evenodd" clip-rule="evenodd" stroke-linejoin="round" stroke-miterlimit="2"><g transform="matrix(1.05843 0 0 .98127 -681.163 -.49)"><path fill="none" d="M643.562.5h387.18v2252.22h-387.18z"/><clipPath id="a"><path d="M643.562.5h387.18v2252.22h-387.18z"/></clipPath><g clip-path="url(#a)"><path class="theline" d="M836.96 1498.793c-69.813-47.938-140.07-95.642-140.07-191.5 0-94.727 68.587-142.431 137.583-189.79 67.058-46.033 134.519-91.71 134.519-183.776 0-92.06-67.46-137.744-134.52-183.774-68.995-47.362-137.581-95.069-137.581-189.792 0-94.724 68.586-142.431 137.582-189.793 67.058-46.03 134.519-91.713 134.519-183.774 0-90.92-65.815-136.6-132.031-182.066-1.54-1.057-1.994-3.264-1.014-4.925.98-1.66 3.026-2.15 4.565-1.093 68.155 46.8 135.092 94.498 135.092 188.084 0 94.723-68.583 142.43-137.58 189.792-67.056 46.03-134.52 91.714-134.52 183.775 0 92.06 67.464 137.744 134.52 183.774 68.997 47.361 137.58 95.069 137.58 189.792 0 94.727-68.583 142.432-137.58 189.79-67.056 46.033-134.52 91.711-134.52 183.777 0 46.228 17.077 80.746 42.538 109.501 25.854 29.204 60.28 52.505 94.47 75.984 68.155 46.798 135.092 94.493 135.092 188.081 0 94.727-68.583 142.432-137.58 189.79-67.056 46.033-134.52 91.72-134.52 183.777 0 63.347 32.063 104.692 73.813 139.377 1.446 1.205 1.715 3.446.602 5.006-1.114 1.56-3.192 1.85-4.638.645-43.386-36.04-76.39-79.206-76.39-145.028 0-94.727 68.586-142.432 137.582-189.79 67.058-46.034 134.519-91.711 134.519-183.777 0-90.917-65.815-136.594-132.031-182.067z" fill="#ccc"/><circle class="circle 1" cx="785.712" cy="600" r="60" fill="#18a0fb" transform="matrix(.78088 0 0 .84227 358.758 -321.847)"/><circle class="circle 2" cx="785.712" cy="600" r="60" fill="#18a0fb" transform="matrix(.78088 0 0 .84227 86.657 66.242)"/><circle class="circle 4" cx="785.712" cy="600" r="60" fill="#18a0fb" transform="matrix(.78088 0 0 .84227 86.703 819.531)"/><circle class="circle 3" cx="785.712" cy="600" r="60" fill="#18a0fb" transform="matrix(.78088 0 0 .84227 358.758 433.114)"/><circle class="circle 5" cx="785.712" cy="600" r="60" fill="#18a0fb" transform="matrix(.78088 0 0 .84227 358.758 1186.403)"/><path class="endcap" d="M835.1 2247.925l-97.45-6.01 75.513-96.58 21.937 102.59z" fill="#18a0fb"/></g></g></svg>