<svg width="460" height="285" fill="none" xmlns="http://www.w3.org/2000/svg"><path transform="matrix(.96331 .30146 -.74076 .69545 202.011 8.592)" fill="#525152" stroke="#525152" stroke-width="5" d="M.556 2.492h264.753V267.68H.556z"/><rect width="56.79" height="14.921" rx="7.461" transform="matrix(.9631 .30167 -.74026 .69561 136.768 214.031)" fill="#6D6C6D"/><rect width="56.79" height="14.921" rx="7.461" transform="matrix(.9631 .30166 -.74027 .6956 207.187 236.087)" fill="#18A0FB"/><rect width="73.118" height="9.06" rx="4.53" transform="matrix(.9631 .30167 -.74026 .69561 92.918 124.178)" fill="#18A0FB"/><rect width="193.796" height="11.724" rx="5.862" transform="matrix(.9631 .30167 -.74026 .69561 75.56 140.489)" fill="#6D6C6D"/><rect width="141.266" height="11.724" rx="5.862" transform="matrix(.9631 .30167 -.74026 .6956 60.57 154.576)" fill="#6D6C6D"/><rect width="73.118" height="9.06" rx="4.53" transform="matrix(.9631 .30167 -.74026 .69561 152.881 67.832)" fill="#18A0FB"/><rect width="193.796" height="11.724" rx="5.862" transform="matrix(.9631 .30167 -.74026 .69561 135.524 84.142)" fill="#6D6C6D"/><rect width="141.266" height="11.724" rx="5.862" transform="matrix(.9631 .30167 -.74026 .69561 120.533 98.229)" fill="#6D6C6D"/><path transform="matrix(.96331 .30146 -.74076 .69545 202.011 8.592)" fill="#6D6C6D" stroke="#6D6C6D" stroke-width="5" d="M.556 2.492h264.753v58.012H.556z"/><rect width="141.263" height="16.02" rx="8.01" transform="matrix(.96311 .30167 -.74028 .69563 199.159 29.485)" fill="#525152"/></svg>