<svg viewBox="0 0 521 2399" xmlns="http://www.w3.org/2000/svg" fill-rule="evenodd" clip-rule="evenodd" stroke-linecap="round" stroke-miterlimit="1">
  <path fill="none" d="M.002 0H520.98v2398.997H.002z"/>
  <path d="M195.111 2391.54l-91.924-21.214 70.711-70.71 21.213 91.923z" fill="#18a0fb"/>
  <path d="M1595.31 100s200 0 200 200-400 200-400 400 400 200 400 400-400 200-400 400 400 200 400 400-400 200-400 400c0 49.87 31.09 93.53 76.99 132.51" fill="none" stroke="#ccc" stroke-width="5" transform="matrix(1 0 0 1 -1337.312 -94)"/>
  <circle cx="1543.93" cy="248.62" r="48.62" fill="#18a0fb" transform="translate(-1129.746 -49.676) scale(1.02838)"/>
  <circle cx="1543.93" cy="248.62" r="48.62" fill="#18a0fb" transform="translate(-1529.748 350.323) scale(1.02838)"/>
  <circle cx="1543.93" cy="248.62" r="48.62" fill="#18a0fb" transform="translate(-1129.746 750.323) scale(1.02838)"/>
  <circle cx="1543.93" cy="248.62" r="48.62" fill="#18a0fb" transform="translate(-1529.748 1150.323) scale(1.02838)"/>
  <circle cx="1543.93" cy="248.62" r="48.62" fill="#18a0fb" transform="translate(-1129.746 1550.326) scale(1.02838)"/>
</svg>